<svg width="157" height="28" viewBox="0 0 157 28" fill="none" xmlns="http://www.w3.org/2000/svg">
<path fill-rule="evenodd" clip-rule="evenodd" d="M20.567 18.6434V20.3689L11.4176 25.6227L2.26832 20.3689V9.8613L11.4176 4.6075L20.567 9.8613V11.5868C20.567 12.1959 21.0641 12.69 21.6762 12.69C22.2886 12.69 22.7856 12.1959 22.7856 11.5868V9.22437C22.7856 8.83021 22.5741 8.46585 22.2309 8.26877L11.9723 2.37804C11.6291 2.18095 11.2062 2.18095 10.8631 2.37804L0.604182 8.26877C0.261022 8.46585 0.0496826 8.83021 0.0496826 9.22437V21.0058C0.0496826 21.4 0.261022 21.7644 0.604182 21.9614L10.8631 27.8522C11.2062 28.0493 11.6291 28.0493 11.9723 27.8522L22.2309 21.9614C22.5741 21.7644 22.7856 21.4 22.7856 21.0058V18.6434C22.7856 18.0346 22.2886 17.5402 21.6762 17.5402C21.0641 17.5402 20.567 18.0346 20.567 18.6434V18.6434ZM11.667 11.0764C11.5181 10.9909 11.3346 10.9909 11.1858 11.0764L8.04421 12.8804C7.89538 12.9658 7.80374 13.1238 7.80374 13.2946V16.9026C7.80374 17.0737 7.89538 17.2314 8.04421 17.3171L11.1858 19.1211C11.3346 19.2065 11.5181 19.2065 11.667 19.1211L14.8086 17.3171C14.9574 17.2314 15.049 17.0737 15.049 16.9026V13.2946C15.049 13.1238 14.9574 12.9658 14.8086 12.8804L11.667 11.0764Z" fill="white"/>
<path d="M39.2301 23.4368C37.6227 23.4368 36.1935 23.0743 34.9423 22.349C33.691 21.6237 32.7043 20.6353 31.982 19.3835C31.2598 18.1316 30.8986 16.7209 30.8986 15.151C30.8986 13.5615 31.2445 12.1409 31.9361 10.889C32.628 9.63713 33.5739 8.64875 34.7743 7.92343C35.9747 7.19811 37.3582 6.83545 38.9248 6.83545C40.166 6.83545 41.3103 7.07398 42.3581 7.55083C43.4058 8.02768 44.3265 8.74306 45.1199 9.69676C45.3438 9.93529 45.4253 10.1886 45.3642 10.4568C45.3032 10.7251 45.1301 10.9586 44.8455 11.1573C44.6216 11.3161 44.3724 11.3709 44.0977 11.3212C43.823 11.2715 43.584 11.1275 43.3805 10.889C42.2005 9.5777 40.7152 8.92196 38.9248 8.92196C37.7856 8.92196 36.7835 9.19009 35.9188 9.72657C35.0541 10.2631 34.3827 10.9983 33.9045 11.9321C33.4265 12.8662 33.1874 13.9391 33.1874 15.151C33.1874 16.3433 33.4416 17.4063 33.9504 18.3403C34.459 19.2741 35.1711 20.0094 36.0866 20.5459C37.0021 21.0824 38.0501 21.3505 39.2301 21.3505C40.0236 21.3505 40.7509 21.2462 41.4121 21.0375C42.0734 20.829 42.6583 20.5061 43.1669 20.069C43.4109 19.8703 43.6652 19.7609 43.9297 19.7411C44.1942 19.7212 44.4385 19.8007 44.6622 19.9796C44.9065 20.198 45.0438 20.4465 45.0742 20.7246C45.1048 21.0029 45.0081 21.2412 44.7844 21.4399C43.2991 22.7713 41.4477 23.4368 39.2301 23.4368V23.4368Z" fill="white"/>
<path d="M55.4376 23.4368C53.81 23.4368 52.3553 23.0792 51.0735 22.3638C49.7918 21.6487 48.7847 20.6649 48.0522 19.4133C47.3197 18.1614 46.9536 16.7408 46.9536 15.151C46.9536 13.5416 47.3197 12.111 48.0522 10.8592C48.7847 9.60731 49.7918 8.62379 51.0735 7.90863C52.3553 7.19325 53.81 6.83545 55.4376 6.83545C57.0652 6.83545 58.5148 7.19325 59.7864 7.90863C61.0581 8.62379 62.0601 9.60731 62.7926 10.8592C63.5248 12.111 63.9014 13.5416 63.9216 15.151C63.9216 16.7408 63.5503 18.1614 62.8077 19.4133C62.0652 20.6649 61.0581 21.6487 59.7864 22.3638C58.5148 23.0792 57.0652 23.4368 55.4376 23.4368V23.4368ZM55.4376 21.3505C56.6176 21.3505 57.6756 21.0824 58.6115 20.5459C59.5474 20.0094 60.2799 19.2741 60.8089 18.3403C61.3379 17.4063 61.6024 16.3433 61.6024 15.151C61.6024 13.959 61.3379 12.8909 60.8089 11.9471C60.2799 11.0032 59.5474 10.2631 58.6115 9.72657C57.6756 9.19009 56.6176 8.92196 55.4376 8.92196C54.2576 8.92196 53.1996 9.19009 52.2637 9.72657C51.3277 10.2631 50.5904 11.0032 50.0512 11.9471C49.512 12.8909 49.2424 13.959 49.2424 15.151C49.2424 16.3433 49.512 17.4063 50.0512 18.3403C50.5904 19.2741 51.3277 20.0094 52.2637 20.5459C53.1996 21.0824 54.2576 21.3505 55.4376 21.3505V21.3505Z" fill="white"/>
<path d="M70.8798 23.2777C70.0659 23.2777 69.3385 23.059 68.6977 22.6219C68.0569 22.1848 67.5583 21.5788 67.2024 20.8038C66.8462 20.029 66.6683 19.1347 66.6683 18.1214V1.1326C66.6683 0.794679 66.775 0.521468 66.9887 0.312966C67.2024 0.104251 67.4822 0 67.8279 0C68.1738 0 68.4536 0.104251 68.6673 0.312966C68.8808 0.521468 68.9877 0.794679 68.9877 1.1326V18.1214C68.9877 18.9759 69.1657 19.6712 69.5218 20.2076C69.8777 20.7441 70.3304 21.0125 70.8798 21.0125H71.6426C71.948 21.0125 72.192 21.1167 72.3751 21.3254C72.5584 21.5339 72.6498 21.8072 72.6498 22.1451C72.6498 22.4828 72.5227 22.756 72.2684 22.9647C72.0141 23.1732 71.6835 23.2777 71.2765 23.2777H70.8798Z" fill="white"/>
<path d="M98.1286 23.2762C97.7827 23.2762 97.4978 23.1717 97.2741 22.9632C97.0503 22.7545 96.9384 22.4813 96.9384 22.1436V13.5596C96.9384 12.149 96.5621 11.0312 95.8092 10.2067C95.0564 9.38196 94.09 8.96981 92.91 8.96981C91.6486 8.96981 90.6161 9.38196 89.8124 10.2067C89.0087 11.0312 88.6171 12.1291 88.6375 13.5H86.5318C86.552 12.1688 86.8471 10.9965 87.4167 9.98315C87.9865 8.96981 88.7698 8.18486 89.7667 7.6285C90.7637 7.07214 91.8926 6.79407 93.1541 6.79407C94.3545 6.79407 95.4176 7.07214 96.3433 7.6285C97.269 8.18486 97.9913 8.96981 98.5101 9.98315C99.0288 10.9965 99.2882 12.1887 99.2882 13.5596V22.1436C99.2882 22.4813 99.1815 22.7545 98.9678 22.9632C98.7541 23.1717 98.4746 23.2762 98.1286 23.2762V23.2762ZM76.766 23.2762C76.3996 23.2762 76.1098 23.1717 75.8962 22.9632C75.6825 22.7545 75.5757 22.4813 75.5757 22.1436V8.13517C75.5757 7.79746 75.6825 7.51918 75.8962 7.30073C76.1098 7.08208 76.3996 6.97275 76.766 6.97275C77.1117 6.97275 77.3915 7.08208 77.6052 7.30073C77.8188 7.51918 77.9256 7.79746 77.9256 8.13517V22.1436C77.9256 22.4813 77.8188 22.7545 77.6052 22.9632C77.3915 23.1717 77.1117 23.2762 76.766 23.2762ZM87.4777 23.2762C87.132 23.2762 86.8471 23.1717 86.6232 22.9632C86.3995 22.7545 86.2875 22.4813 86.2875 22.1436V13.5596C86.2875 12.149 85.9112 11.0312 85.1583 10.2067C84.4056 9.38196 83.4393 8.96981 82.2591 8.96981C80.9978 8.96981 79.9601 9.37202 79.1464 10.1768C78.3325 10.9815 77.9256 12.0297 77.9256 13.3213H76.2472C76.2878 12.0496 76.5778 10.922 77.1168 9.93831C77.656 8.9548 78.3935 8.18486 79.3295 7.6285C80.2654 7.07214 81.3234 6.79407 82.5034 6.79407C83.7038 6.79407 84.7667 7.07214 85.6924 7.6285C86.6181 8.18486 87.3404 8.96981 87.8593 9.98315C88.3781 10.9965 88.6375 12.1887 88.6375 13.5596V22.1436C88.6375 22.4813 88.5306 22.7545 88.3171 22.9632C88.1034 23.1717 87.8236 23.2762 87.4777 23.2762Z" fill="white"/>
<path d="M110.824 23.4368C109.176 23.4368 107.716 23.0843 106.445 22.3788C105.173 21.6734 104.176 20.6948 103.454 19.4431C102.732 18.1912 102.371 16.7607 102.371 15.151C102.371 13.5217 102.711 12.0861 103.393 10.8444C104.074 9.60245 105.015 8.62379 106.216 7.90863C107.416 7.19325 108.8 6.83545 110.366 6.83545C111.912 6.83545 113.26 7.17823 114.41 7.86379C115.559 8.54936 116.449 9.49819 117.08 10.7101C117.711 11.9222 118.026 13.3033 118.026 14.8531C118.026 15.1709 117.925 15.4242 117.721 15.6131C117.518 15.8019 117.253 15.8962 116.928 15.8962H103.958V13.9888H117.172L115.859 14.9127C115.88 13.7602 115.666 12.727 115.219 11.8129C114.771 10.8989 114.135 10.1835 113.311 9.66694C112.487 9.15034 111.506 8.89214 110.366 8.89214C109.207 8.89214 108.189 9.16028 107.314 9.69676C106.44 10.2332 105.763 10.9734 105.285 11.9173C104.807 12.8611 104.568 13.9391 104.568 15.151C104.568 16.3631 104.837 17.4361 105.377 18.3701C105.916 19.304 106.653 20.0392 107.589 20.5757C108.525 21.1122 109.603 21.3803 110.824 21.3803C111.556 21.3803 112.294 21.2562 113.037 21.0077C113.779 20.7595 114.374 20.4465 114.822 20.069C115.046 19.8901 115.3 19.7958 115.585 19.7859C115.87 19.7759 116.114 19.8504 116.317 20.0094C116.582 20.2477 116.719 20.5061 116.729 20.7842C116.739 21.0625 116.623 21.3008 116.378 21.4996C115.707 22.0559 114.852 22.518 113.815 22.8855C112.777 23.253 111.78 23.4368 110.824 23.4368V23.4368Z" fill="white"/>
<path d="M135.697 23.2762C135.352 23.2762 135.067 23.1668 134.843 22.9482C134.619 22.7297 134.507 22.4614 134.507 22.1436V14.3943C134.507 13.1623 134.268 12.149 133.79 11.3541C133.312 10.5594 132.661 9.96327 131.837 9.56593C131.013 9.16838 130.082 8.96981 129.045 8.96981C128.048 8.96981 127.147 9.15844 126.344 9.53611C125.54 9.91357 124.904 10.4302 124.436 11.0859C123.968 11.7417 123.734 12.4867 123.734 13.3213H122.056C122.097 12.0694 122.442 10.9519 123.093 9.96813C123.745 8.98462 124.609 8.2096 125.688 7.6433C126.766 7.07701 127.966 6.79407 129.289 6.79407C130.733 6.79407 132.025 7.08694 133.165 7.67312C134.304 8.2593 135.204 9.11868 135.865 10.2513C136.527 11.3839 136.857 12.7649 136.857 14.3943V22.1436C136.857 22.4614 136.745 22.7297 136.522 22.9482C136.298 23.1668 136.023 23.2762 135.697 23.2762ZM122.575 23.2762C122.209 23.2762 121.919 23.1717 121.705 22.9632C121.491 22.7545 121.384 22.4813 121.384 22.1436V8.13517C121.384 7.77758 121.491 7.49443 121.705 7.28572C121.919 7.07701 122.209 6.97275 122.575 6.97275C122.921 6.97275 123.2 7.07701 123.414 7.28572C123.628 7.49443 123.734 7.77758 123.734 8.13517V22.1436C123.734 22.4813 123.628 22.7545 123.414 22.9632C123.2 23.1717 122.921 23.2762 122.575 23.2762Z" fill="white"/>
<path d="M147.875 23.4368C146.309 23.4368 144.905 23.0743 143.664 22.349C142.423 21.6237 141.441 20.6353 140.718 19.3835C139.996 18.1316 139.635 16.7209 139.635 15.151C139.635 13.5615 140.006 12.1409 140.749 10.889C141.492 9.63713 142.504 8.64875 143.786 7.92343C145.067 7.19811 146.512 6.83545 148.119 6.83545C149.727 6.83545 151.166 7.19811 152.438 7.92343C153.709 8.64875 154.716 9.63713 155.459 10.889C156.202 12.1409 156.583 13.5615 156.603 15.151L155.657 15.8664C155.657 17.2972 155.316 18.5837 154.635 19.7262C153.953 20.8688 153.028 21.7728 151.858 22.4385C150.688 23.1042 149.36 23.4368 147.875 23.4368V23.4368ZM148.119 21.3505C149.299 21.3505 150.352 21.0824 151.278 20.5459C152.204 20.0094 152.936 19.2693 153.475 18.3253C154.014 17.3815 154.284 16.3234 154.284 15.151C154.284 13.959 154.014 12.896 153.475 11.962C152.936 11.0281 152.204 10.288 151.278 9.74159C150.352 9.19517 149.299 8.92196 148.119 8.92196C146.96 8.92196 145.912 9.19517 144.976 9.74159C144.04 10.288 143.297 11.0281 142.748 11.962C142.199 12.896 141.924 13.959 141.924 15.151C141.924 16.3234 142.199 17.3815 142.748 18.3253C143.297 19.2693 144.04 20.0094 144.976 20.5459C145.912 21.0824 146.96 21.3505 148.119 21.3505ZM155.413 23.2879C155.067 23.2879 154.782 23.1835 154.559 22.975C154.335 22.7662 154.223 22.493 154.223 22.1553V17.0586L154.803 14.704L156.603 15.151V22.1553C156.603 22.493 156.491 22.7662 156.268 22.975C156.044 23.1835 155.759 23.2879 155.413 23.2879V23.2879Z" fill="white"/>
</svg>
